
Complete name                    : Legion.2010.avi
Format                           : AVI
File size                        : 706 MiB
Duration                         : 1h 36mn
Overall bit rate                 : 1 028 Kbps

Video

Format                           : MPEG-4 Visual
Codec ID/Hint                    : XviD
Duration                         : 1h 36mn
Bit rate                         : 887 Kbps
Width                            : 720 pixels
Height                           : 428 pixels
Display aspect ratio             : 2.35:1
Stream size                      : 609 MiB (86%)
Writing library                  : XviD 1.1.2 (UTC 2006-11-01)

Audio

Format                           : MPEG Audio
Codec ID/Hint                    : MP3
Duration                         : 1h 36mn
Bit rate                         : 128 Kbps
Channel(s)                       : 2 channels
Sampling rate                    : 48.0 KHz
Stream size                      : 87.9 MiB (12%)
Writing library                  : LAME3.98
Language                         : English


Text #1
Language                         : English

Text #2
Language                         : French

Text #3
Language                         : Spanish

Text #4
Language                         : Dutch

Text #5
Language                         : Arabic

Text #6
Language                         : Danish

Text #7
Language                         : Finnish

Text #8
Language                         : Norwegian

Text #9
Language                         : Portuguese

Text #10
Language                         : Swedish

Text #11
Language                         : Catalan

 
http://www.imdb.com/media/rm61442304/tt1038686